<?xml version="1.0" encoding="iso-8859-1"?>
<!-- Generator: Adobe Illustrator 19.0.0, SVG Export Plug-In . SVG Version: 6.00 Build 0)  -->
<svg version="1.1" id="Layer_1" xmlns="http://www.w3.org/2000/svg" xmlns:xlink="http://www.w3.org/1999/xlink" x="0px" y="0px"
	 viewBox="0 0 501.333 501.333" style="enable-background:new 0 0 501.333 501.333;" xml:space="preserve">
<g>
	<g>
		<path d="M442.133,57.6c-26.667-14.933-54.4-21.333-86.4-21.333c-37.333,0-74.667,9.6-109.867,19.2
			c-34.133,9.6-67.2,18.133-99.2,18.133c-20.267,0-38.4-4.267-55.467-10.667v-41.6C91.2,9.6,81.6,0,69.867,0
			S48.533,9.6,48.533,21.333V480c0,11.733,9.6,21.333,21.333,21.333s21.333-9.6,21.333-20.267v-147.2
			c18.133,5.333,36.267,8.533,55.467,8.533c38.4,0,74.667-9.6,109.867-18.133c34.133-9.6,67.2-18.133,99.2-18.133
			c24.533,0,45.867,5.333,66.133,16c6.4,3.2,14.933,3.2,21.333,0c5.333-4.267,9.6-10.667,9.6-18.133V75.733
			C452.8,68.267,448.533,60.8,442.133,57.6z M411.2,272c-17.067-6.4-36.267-8.533-55.467-8.533c-37.333,0-74.667,9.6-109.867,19.2
			c-34.133,9.6-67.2,18.133-99.2,18.133c-20.267,0-38.4-3.2-55.467-10.667v-182.4c17.067,6.4,36.267,8.533,55.467,8.533
			c37.333,0,74.667-9.6,109.867-19.2c34.133-9.6,67.2-18.133,99.2-18.133c20.267,0,38.4,3.2,55.467,10.667V272z"/>
	</g>
</g>
<g>
</g>
<g>
</g>
<g>
</g>
<g>
</g>
<g>
</g>
<g>
</g>
<g>
</g>
<g>
</g>
<g>
</g>
<g>
</g>
<g>
</g>
<g>
</g>
<g>
</g>
<g>
</g>
<g>
</g>
</svg>
