<?xml version="1.0" standalone="no"?>
<!DOCTYPE svg PUBLIC "-//W3C//DTD SVG 20010904//EN"
 "http://www.w3.org/TR/2001/REC-SVG-20010904/DTD/svg10.dtd">
<svg version="1.0" xmlns="http://www.w3.org/2000/svg"
 width="700.000000pt" height="700.000000pt" viewBox="0 0 700.000000 700.000000"
 preserveAspectRatio="xMidYMid meet">
<metadata>
Created by potrace 1.14, written by Peter Selinger 2001-2017
</metadata>
<g transform="translate(0.000000,700.000000) scale(0.100000,-0.100000)"
fill="#000000" stroke="none">
<path d="M900 6990 c-93 -27 -177 -107 -206 -193 -16 -48 -17 -259 -17 -3292
0 -3095 1 -3243 18 -3298 22 -71 80 -139 149 -175 43 -22 64 -26 131 -26 68 0
88 4 134 27 66 34 104 75 139 147 l26 55 0 1050 c1 928 3 1050 16 1046 72 -18
267 -62 315 -71 156 -28 239 -35 460 -35 267 0 482 21 740 71 134 26 186 37
335 71 85 19 227 52 315 75 88 22 165 41 170 42 6 1 35 10 65 19 193 56 580
146 760 176 562 92 965 49 1380 -146 47 -22 103 -46 124 -53 49 -16 172 -8
213 13 64 33 135 131 150 207 8 37 7 3248 -1 3293 -18 110 -71 167 -223 244
-192 96 -314 142 -493 185 -93 22 -95 22 -160 33 -25 4 -52 9 -60 10 -8 2 -44
6 -80 10 -36 3 -81 8 -100 11 -50 6 -381 6 -465 0 -70 -6 -243 -25 -274 -31
-9 -1 -41 -6 -71 -10 -30 -4 -98 -16 -150 -26 -52 -11 -108 -22 -125 -25 -86
-15 -392 -90 -645 -159 -162 -44 -505 -135 -525 -139 -11 -3 -65 -14 -120 -26
-55 -12 -111 -24 -125 -26 -14 -2 -45 -8 -70 -14 -49 -10 -89 -16 -165 -26
-27 -3 -58 -8 -67 -9 -127 -25 -620 -23 -660 1 -4 3 -26 7 -50 10 -57 8 -194
41 -241 59 -20 8 -40 15 -45 15 -4 0 -34 9 -68 20 l-61 20 0 313 c0 360 -4
382 -79 466 -57 63 -120 93 -204 96 -36 2 -76 -1 -90 -5z m4300 -1103 c87 -10
150 -20 210 -33 36 -8 76 -17 89 -20 23 -5 159 -51 214 -73 22 -8 27 -17 27
-43 1 -43 1 -2432 0 -2480 l0 -36 -72 24 c-90 31 -286 71 -398 81 -167 16
-578 9 -725 -12 -186 -26 -216 -31 -295 -46 -127 -25 -158 -31 -219 -46 -36
-8 -73 -17 -84 -19 -10 -2 -26 -5 -35 -8 -9 -3 -28 -7 -42 -10 -23 -4 -264
-66 -390 -100 -265 -73 -521 -139 -600 -157 -52 -11 -104 -23 -115 -25 -37 -9
-170 -33 -210 -39 -22 -3 -53 -8 -70 -11 -105 -19 -260 -29 -435 -29 -292 0
-451 25 -680 107 l-95 34 0 1273 -1 1273 21 -6 c11 -2 52 -14 90 -26 39 -11
84 -23 100 -26 17 -3 46 -9 65 -14 31 -7 90 -16 169 -26 183 -21 539 -21 681
1 14 2 50 7 80 10 30 3 66 8 80 10 30 5 154 25 195 32 150 24 511 111 920 223
290 79 490 129 588 145 17 3 48 10 67 15 19 5 85 16 145 25 61 9 121 18 135
21 14 2 66 7 115 10 50 4 91 8 93 9 4 3 341 -4 382 -8z"/>
</g>
</svg>
